<?xml version="1.0" encoding="UTF-8" standalone="no"?>
<!DOCTYPE svg PUBLIC "-//W3C//DTD SVG 1.1//EN"
 "http://www.w3.org/Graphics/SVG/1.1/DTD/svg11.dtd">
<!-- Generated by graphviz version 2.43.0 (0)
 -->
<!-- Title: /home/runner/work/cbmc/cbmc/src/goto&#45;instrument/contracts/dynamic&#45;frames/dfcc_loop_nesting_graph.h Pages: 1 -->
<svg width="438pt" height="239pt"
 viewBox="0.00 0.00 437.50 239.00" xmlns="http://www.w3.org/2000/svg" xmlns:xlink="http://www.w3.org/1999/xlink">
<g id="graph0" class="graph" transform="scale(1 1) rotate(0) translate(4 235)">
<title>/home/runner/work/cbmc/cbmc/src/goto&#45;instrument/contracts/dynamic&#45;frames/dfcc_loop_nesting_graph.h</title>
<!-- Node1 -->
<g id="node1" class="node">
<title>Node1</title>
<g id="a_node1"><a xlink:title="Builds a graph describing how loops are nested in a GOTO program.">
<polygon fill="#bfbfbf" stroke="black" points="101.5,-178.5 101.5,-230.5 250.5,-230.5 250.5,-178.5 101.5,-178.5"/>
<text text-anchor="start" x="109.5" y="-218.5" font-family="Helvetica,sans-Serif" font-size="10.00">/home/runner/work/cbmc</text>
<text text-anchor="start" x="109.5" y="-207.5" font-family="Helvetica,sans-Serif" font-size="10.00">/cbmc/src/goto&#45;instrument</text>
<text text-anchor="start" x="109.5" y="-196.5" font-family="Helvetica,sans-Serif" font-size="10.00">/contracts/dynamic&#45;frames</text>
<text text-anchor="middle" x="176" y="-185.5" font-family="Helvetica,sans-Serif" font-size="10.00">/dfcc_loop_nesting_graph.h</text>
</a>
</g>
</g>
<!-- Node2 -->
<g id="node2" class="node">
<title>Node2</title>
<g id="a_node2"><a xlink:href="dfcc__cfg__info_8cpp.html" target="_top" xlink:title=" ">
<polygon fill="none" stroke="black" points="0,-0.5 0,-52.5 148,-52.5 148,-0.5 0,-0.5"/>
<text text-anchor="start" x="8" y="-40.5" font-family="Helvetica,sans-Serif" font-size="10.00">/home/runner/work/cbmc</text>
<text text-anchor="start" x="8" y="-29.5" font-family="Helvetica,sans-Serif" font-size="10.00">/cbmc/src/goto&#45;instrument</text>
<text text-anchor="start" x="8" y="-18.5" font-family="Helvetica,sans-Serif" font-size="10.00">/contracts/dynamic&#45;frames</text>
<text text-anchor="middle" x="74" y="-7.5" font-family="Helvetica,sans-Serif" font-size="10.00">/dfcc_cfg_info.cpp</text>
</a>
</g>
</g>
<!-- Node1&#45;&gt;Node2 -->
<g id="edge1" class="edge">
<title>Node1&#45;&gt;Node2</title>
<path fill="none" stroke="midnightblue" d="M121.02,-172.19C110.23,-163.69 100.08,-153.58 93,-142 76.29,-114.67 73.01,-77.12 72.92,-52.59"/>
<polygon fill="midnightblue" stroke="midnightblue" points="119.24,-175.22 129.35,-178.37 123.41,-169.6 119.24,-175.22"/>
</g>
<!-- Node3 -->
<g id="node3" class="node">
<title>Node3</title>
<g id="a_node3"><a xlink:href="dfcc__infer__loop__assigns_8h.html" target="_top" xlink:title="Infer a set of assigns clause targets for a natural loop.">
<polygon fill="none" stroke="black" points="102,-89.5 102,-141.5 250,-141.5 250,-89.5 102,-89.5"/>
<text text-anchor="start" x="110" y="-129.5" font-family="Helvetica,sans-Serif" font-size="10.00">/home/runner/work/cbmc</text>
<text text-anchor="start" x="110" y="-118.5" font-family="Helvetica,sans-Serif" font-size="10.00">/cbmc/src/goto&#45;instrument</text>
<text text-anchor="start" x="110" y="-107.5" font-family="Helvetica,sans-Serif" font-size="10.00">/contracts/dynamic&#45;frames</text>
<text text-anchor="middle" x="176" y="-96.5" font-family="Helvetica,sans-Serif" font-size="10.00">/dfcc_infer_loop_assigns.h</text>
</a>
</g>
</g>
<!-- Node1&#45;&gt;Node3 -->
<g id="edge2" class="edge">
<title>Node1&#45;&gt;Node3</title>
<path fill="none" stroke="midnightblue" d="M176,-168.19C176,-159.28 176,-149.9 176,-141.61"/>
<polygon fill="midnightblue" stroke="midnightblue" points="172.5,-168.34 176,-178.34 179.5,-168.34 172.5,-168.34"/>
</g>
<!-- Node5 -->
<g id="node5" class="node">
<title>Node5</title>
<g id="a_node5"><a xlink:href="dfcc__loop__nesting__graph_8cpp.html" target="_top" xlink:title=" ">
<polygon fill="none" stroke="black" points="268.5,-89.5 268.5,-141.5 429.5,-141.5 429.5,-89.5 268.5,-89.5"/>
<text text-anchor="start" x="276.5" y="-129.5" font-family="Helvetica,sans-Serif" font-size="10.00">/home/runner/work/cbmc</text>
<text text-anchor="start" x="276.5" y="-118.5" font-family="Helvetica,sans-Serif" font-size="10.00">/cbmc/src/goto&#45;instrument</text>
<text text-anchor="start" x="276.5" y="-107.5" font-family="Helvetica,sans-Serif" font-size="10.00">/contracts/dynamic&#45;frames</text>
<text text-anchor="middle" x="349" y="-96.5" font-family="Helvetica,sans-Serif" font-size="10.00">/dfcc_loop_nesting_graph.cpp</text>
</a>
</g>
</g>
<!-- Node1&#45;&gt;Node5 -->
<g id="edge5" class="edge">
<title>Node1&#45;&gt;Node5</title>
<path fill="none" stroke="midnightblue" d="M235.11,-173.78C255.92,-163.31 279.09,-151.66 299.07,-141.61"/>
<polygon fill="midnightblue" stroke="midnightblue" points="233.4,-170.72 226.04,-178.34 236.55,-176.97 233.4,-170.72"/>
</g>
<!-- Node3&#45;&gt;Node2 -->
<g id="edge3" class="edge">
<title>Node3&#45;&gt;Node2</title>
<path fill="none" stroke="midnightblue" d="M138.66,-82.65C127.05,-72.75 114.42,-61.98 103.44,-52.61"/>
<polygon fill="midnightblue" stroke="midnightblue" points="136.62,-85.51 146.5,-89.34 141.16,-80.18 136.62,-85.51"/>
</g>
<!-- Node4 -->
<g id="node4" class="node">
<title>Node4</title>
<g id="a_node4"><a xlink:href="dfcc__infer__loop__assigns_8cpp.html" target="_top" xlink:title=" ">
<polygon fill="none" stroke="black" points="166,-0.5 166,-52.5 322,-52.5 322,-0.5 166,-0.5"/>
<text text-anchor="start" x="174" y="-40.5" font-family="Helvetica,sans-Serif" font-size="10.00">/home/runner/work/cbmc</text>
<text text-anchor="start" x="174" y="-29.5" font-family="Helvetica,sans-Serif" font-size="10.00">/cbmc/src/goto&#45;instrument</text>
<text text-anchor="start" x="174" y="-18.5" font-family="Helvetica,sans-Serif" font-size="10.00">/contracts/dynamic&#45;frames</text>
<text text-anchor="middle" x="244" y="-7.5" font-family="Helvetica,sans-Serif" font-size="10.00">/dfcc_infer_loop_assigns.cpp</text>
</a>
</g>
</g>
<!-- Node3&#45;&gt;Node4 -->
<g id="edge4" class="edge">
<title>Node3&#45;&gt;Node4</title>
<path fill="none" stroke="midnightblue" d="M202.02,-81.22C209.44,-71.72 217.4,-61.53 224.38,-52.61"/>
<polygon fill="midnightblue" stroke="midnightblue" points="199.07,-79.3 195.67,-89.34 204.58,-83.61 199.07,-79.3"/>
</g>
</g>
</svg>
